<?xml version="1.0" standalone="no"?><!DOCTYPE svg PUBLIC "-//W3C//DTD SVG 1.1//EN" "http://www.w3.org/Graphics/SVG/1.1/DTD/svg11.dtd"><svg t="1594437937270" class="icon" viewBox="0 0 1024 1024" version="1.1" xmlns="http://www.w3.org/2000/svg" p-id="3148" xmlns:xlink="http://www.w3.org/1999/xlink" width="128" height="128"><defs><style type="text/css"></style></defs><path d="M87.552 429.568s3.072-13.824 11.264-22.016c8.192-8.192 22.016-10.752 22.016-10.752s-13.824-3.072-22.528-11.264c-8.192-8.192-10.752-21.504-10.752-21.504s-2.56 13.824-11.264 22.016c-8.192 8.192-22.016 10.752-22.016 10.752s13.824 2.56 22.016 10.752c8.704 8.704 11.264 22.016 11.264 22.016zM977.92 707.584c-8.192-8.192-10.752-21.504-10.752-21.504s-2.56 13.824-11.264 22.016c-8.192 8.192-22.016 10.752-22.016 10.752s13.824 2.56 22.016 10.752c8.192 8.192 11.264 21.504 11.264 21.504s3.072-13.824 11.264-22.016c8.192-8.192 22.016-10.752 22.016-10.752s-14.336-2.56-22.528-10.752zM222.208 144.896c12.8-12.288 34.304-15.872 34.304-15.872s-22.016-4.096-34.816-16.384c-12.8-12.288-16.896-32.256-16.896-32.256s-4.608 20.48-17.408 32.768c-12.8 12.288-34.304 16.384-34.304 16.384s21.504 4.096 34.816 16.384c12.8 12.288 17.408 32.768 17.408 32.768s3.584-21.504 16.896-33.792z m471.04 733.696s-2.56 13.824-11.264 22.016c-8.192 8.192-22.016 10.752-22.016 10.752s13.824 2.56 22.016 10.752c8.192 8.192 11.264 21.504 11.264 21.504s3.072-13.824 11.264-22.016c8.192-8.192 22.016-10.752 22.016-10.752s-13.824-3.072-22.528-11.264c-8.192-7.68-10.752-20.992-10.752-20.992zM978.432 373.76s-23.04-4.608-36.864-18.944c-13.824-13.824-17.92-36.352-17.92-36.352s-4.608 23.04-18.432 36.864-36.352 18.432-36.352 18.432 23.04 4.608 36.864 18.432 18.432 36.864 18.432 36.864 5.12-23.552 18.944-37.376c12.8-13.312 35.328-17.92 35.328-17.92zM84.992 747.008s-5.12 25.6-20.48 40.96-40.448 20.48-40.448 20.48 25.6 5.12 40.96 20.48 20.48 40.96 20.48 40.96 5.632-26.112 20.992-41.472c14.848-14.848 39.936-19.968 39.936-19.968s-25.6-5.12-40.96-20.992c-15.36-14.848-20.48-40.448-20.48-40.448z m659.456-499.2h-75.264v-21.504c0-6.656-5.12-11.776-11.776-11.776-6.656 0-11.776 5.12-11.776 11.776v21.504H356.352v-21.504c0-6.656-5.12-11.776-11.776-11.776-6.656 0-11.776 5.12-11.776 11.776v21.504H258.048c-34.816 0-62.976 28.16-62.976 62.464v459.776c0 34.304 28.16 62.464 62.976 62.464h485.888c34.816 0 62.976-28.16 62.976-62.464V310.272c0-34.304-28.16-62.464-62.464-62.464z m36.352 522.24c0 20.48-16.384 36.864-36.864 36.864H258.048c-20.48 0-36.864-16.384-36.864-36.864V378.368h559.616v391.68z m0.512-417.28H221.184v-41.984c0-19.968 16.384-36.864 36.864-36.864h75.264v56.32c0 6.656 5.12 11.776 11.776 11.776 6.656 0 11.776-5.12 11.776-11.776v-56.32h289.28v56.32c0 6.656 5.12 11.776 11.776 11.776 6.656 0 11.776-5.12 11.776-11.776v-56.32h75.264c20.48 0 36.864 16.384 36.864 36.864v41.984zM399.36 632.32c-5.12-5.12-13.312-5.12-18.432 0s-5.12 13.312 0 18.432l82.944 82.432c2.56 2.56 5.632 3.584 9.216 3.584s6.656-1.024 9.216-3.584l175.104-174.08c5.12-5.12 5.12-13.312 0-18.432s-13.312-5.12-18.432 0l-165.888 164.864L399.36 632.32zM266.752 469.504h243.712c6.656 0 12.288-5.632 12.288-12.288 0-6.656-5.632-12.288-12.288-12.288H266.752c-6.656 0-12.288 5.632-12.288 12.288 0 6.656 5.632 12.288 12.288 12.288z m0 87.04h293.888c6.656 0 12.288-5.632 12.288-12.288 0-6.656-5.632-12.288-12.288-12.288H266.752c-6.656 0-12.288 5.632-12.288 12.288 0 6.656 5.632 12.288 12.288 12.288z" p-id="3149" fill="#3F78F6"></path></svg>